<svg width="32" height="32" viewBox="0 0 32 32" fill="none" xmlns="http://www.w3.org/2000/svg">
<path d="M30.3369 7.01225C31.1109 6.23242 31.1109 4.97415 30.3369 4.19432L26.7601 0.590961C25.9779 -0.197084 24.7034 -0.197083 23.9212 0.590962L16.9941 7.56958C16.2119 8.35763 14.9374 8.35763 14.1552 7.56958L7.58474 0.950266C6.80251 0.162221 5.52809 0.162222 4.74586 0.950267L1.1791 4.54354C0.405021 5.32338 0.405021 6.58164 1.1791 7.36148L7.50999 13.7394C8.28406 14.5193 8.28406 15.7775 7.50999 16.5574L0.580558 23.5383C-0.19352 24.3181 -0.19352 25.5764 0.580558 26.3562L4.15733 29.9596C4.93955 30.7477 6.21398 30.7477 6.99621 29.9596L13.8839 23.0207C14.6661 22.2327 15.9406 22.2327 16.7228 23.0207L24.1778 30.5311C24.96 31.3192 26.2344 31.3192 27.0167 30.5311L30.5834 26.9379C31.3575 26.158 31.3575 24.8998 30.5834 24.1199L23.368 16.8509C22.5939 16.071 22.5939 14.8128 23.368 14.0329L30.3369 7.01225Z" fill="#EAC77B"/>
</svg>
