<svg width="60" height="60" viewBox="0 0 60 60" fill="none" xmlns="http://www.w3.org/2000/svg">
<path d="M60 30C60 46.5685 46.5685 60 30 60C13.4315 60 0 46.5685 0 30C0 13.4315 13.4315 0 30 0C46.5685 0 60 13.4315 60 30Z" fill="#EBF5EB"/>
<path d="M20.4062 42.311C20.4139 42.303 20.4267 42.3029 20.4346 42.3107L22.0308 43.907C22.8078 44.6839 24.066 44.6886 24.8487 43.9174L48.1034 21.0047C48.8943 20.2254 48.8991 18.951 48.1139 18.1658L44.5339 14.5858C43.7569 13.8088 42.4987 13.8042 41.716 14.5753L24.8196 31.2232C24.0425 31.9889 22.7951 31.9906 22.016 31.2269L16.517 25.8373C15.724 25.0601 14.4497 25.0776 13.6784 25.8764L10.1614 29.5183C9.39807 30.3087 9.41537 31.5669 10.2001 32.336L20.3779 42.3114C20.3858 42.3191 20.3985 42.3189 20.4062 42.311Z" fill="#83EB91"/>
</svg>
