<svg width="60" height="60" viewBox="0 0 60 60" fill="none" xmlns="http://www.w3.org/2000/svg">
<circle cx="30" cy="30" r="30" fill="#F5F3EB"/>
<path fill-rule="evenodd" clip-rule="evenodd" d="M44.7549 21.451C45.529 20.6712 45.529 19.4129 44.7549 18.6331L41.1781 15.0298C40.3959 14.2417 39.1215 14.2417 38.3392 15.0298L31.4121 22.0084C30.6299 22.7964 29.3555 22.7964 28.5732 22.0084L22.0028 15.3891C21.2205 14.601 19.9461 14.601 19.1639 15.3891L15.5971 18.9823C14.823 19.7622 14.823 21.0204 15.5971 21.8003L21.928 28.1782C22.7021 28.9581 22.7021 30.2163 21.928 30.9962L14.9986 37.9771C14.2245 38.7569 14.2245 40.0152 14.9986 40.795L18.5754 44.3984C19.3576 45.1864 20.632 45.1864 21.4142 44.3984L28.3019 37.4595C29.0842 36.6715 30.3586 36.6715 31.1408 37.4595L38.5958 44.9699C39.378 45.758 40.6524 45.758 41.4347 44.9699L45.0014 41.3766C45.7755 40.5968 45.7755 39.3385 45.0014 38.5587L37.786 31.2897C37.0119 30.5098 37.0119 29.2516 37.786 28.4717L44.7549 21.451Z" fill="#EAC77B"/>
</svg>
