<svg width="24" height="24" viewBox="0 0 24 24" fill="none" xmlns="http://www.w3.org/2000/svg">
<path d="M0.918943 5.3557C-0.306231 4.13053 -0.306231 2.14413 0.918943 0.918951C2.14412 -0.306223 4.13052 -0.306223 5.35569 0.918951L22.1321 17.6954C23.3573 18.9206 23.3573 20.907 22.1321 22.1322C20.907 23.3573 18.9206 23.3573 17.6954 22.1322L0.918943 5.3557Z" fill="#8488EF"/>
<path d="M5.35563 22.1321C4.13045 23.3573 2.14405 23.3573 0.918881 22.1321C-0.306293 20.9069 -0.306294 18.9205 0.918881 17.6953L17.6953 0.918881C18.9205 -0.306294 20.9069 -0.306293 22.1321 0.918881C23.3573 2.14405 23.3573 4.13045 22.1321 5.35563L5.35563 22.1321Z" fill="#8488EF"/>
</svg>
