<svg width="41" height="31" viewBox="0 0 41 31" fill="none" xmlns="http://www.w3.org/2000/svg">
<path d="M11.7449 28.3935C11.7526 28.3855 11.7654 28.3854 11.7733 28.3932L13.3695 29.9895C14.1465 30.7664 15.4047 30.7711 16.1874 29.9999L39.4421 7.08721C40.233 6.30791 40.2377 5.03349 39.4526 4.24835L35.8725 0.668306C35.0956 -0.108654 33.8373 -0.113315 33.0546 0.657869L16.1583 17.3057C15.3812 18.0714 14.1338 18.0731 13.3547 17.3095L7.85565 11.9198C7.06266 11.1426 5.78835 11.1601 5.01703 11.9589L1.50001 15.6008C0.73673 16.3913 0.754028 17.6494 1.53876 18.4185L11.7166 28.3939C11.7245 28.4016 11.7372 28.4014 11.7449 28.3935Z" fill="#83EB91"/>
</svg>
